# xmcd
# 
# Track frame offsets:
#     182
#     6420
#     125350
#     177322
#     232480
#     250602
# 
# Disc length: 3561
# 
# Revision: 3
# Processed by: cddbd v1.5.2PL0 Copyright (c) Steve Scherf et al.
# Submitted via: BonkEnc v1.0.8
# 
DISCID=4d0de706
DTITLE=Nigel Kennedy/Klaus Tennstedt/Sinfonie-Orchester des NDR - Beethoven
DYEAR=1992
DGENRE=Classical
TTITLE0=Ludwig van Beethoven: Violin Concerto in D Op 61, tuning and applause
TTITLE1=Ludwig van Beethoven: Violin Concerto in D Op 61, Allegro ma non troppo
TTITLE2=Ludwig van Beethoven: Violin Concerto in D Op 61, Larghetto
TTITLE3=Ludwig van Beethoven: Violin Concerto in D Op 61, Rondo (Allegro)
TTITLE4=J. S. Bach: Preludio from Partita No.3 in E BWV1006
TTITLE5=J. S. Bach: Allegro assai from Sonata No.3 in C BWV1005
EXTD=
EXTT0=
EXTT1=
EXTT2=
EXTT3=
EXTT4=
EXTT5=
PLAYORDER=
